<svg xmlns="http://www.w3.org/2000/svg" width="20" height="27.143" viewBox="0 0 20 27.143">
  <path id="ic_mic_none_24px" d="M15,19.143a4.268,4.268,0,0,0,4.271-4.286l.014-8.571a4.286,4.286,0,1,0-8.571,0v8.571A4.28,4.28,0,0,0,15,19.143Zm-1.714-13a1.714,1.714,0,1,1,3.429,0L16.7,15a1.707,1.707,0,1,1-3.414,0V6.143Zm9.286,8.714A7.413,7.413,0,0,1,15,22.143a7.413,7.413,0,0,1-7.571-7.286H5a9.977,9.977,0,0,0,8.571,9.6v4.686h2.857V24.457A9.954,9.954,0,0,0,25,14.857Z" transform="translate(-5 -2)" fill="#fff"/>
</svg>
